<svg width="152" height="64" viewBox="0 0 152 64" fill="none" xmlns="http://www.w3.org/2000/svg">
<g id="IMAGE" clip-path="url(#clip0_1_7566)">
<path id="Vector" d="M134.036 0.376465H2.07273C1.11878 0.376465 0.345455 1.21922 0.345455 2.25882V36.8941C0.345455 37.9337 1.11878 38.7765 2.07273 38.7765H134.036C134.99 38.7765 135.764 37.9337 135.764 36.8941V2.25882C135.764 1.21922 134.99 0.376465 134.036 0.376465Z" fill="white" stroke="#00ACC1"/>
<path id="Vector_2" d="M32.4727 14.8931C33.1754 17.1323 35.0553 20.766 36.3584 22.4827L33.8165 24.3063C32.5909 22.6303 29.4231 17.2415 28.6299 14.8931H32.4727Z" fill="#00ACC1"/>
<path id="Vector_3" d="M37.9496 25.4923C37.4383 24.7544 35.4726 21.1357 35.4726 21.1357L34.1924 23.2952L33.3495 23.4044C33.3495 23.4044 35.541 27.9446 36.7301 29.0085C37.8964 30.6936 39.5241 31.6513 40.8023 31.8215C42.1448 31.9962 43.4886 31.2304 44.7218 29.1689C45.5634 27.7548 46.3441 25.7844 47.0184 23.1551C46.1313 25.1105 43.3718 33.3296 37.9496 25.4923Z" fill="#00ACC1"/>
<path id="Vector_4" d="M32.3035 31.6454H28.4613C28.4613 31.6454 38.1789 13.6705 44.641 11.9033L44.6548 11.9244C38.0684 18.7829 32.3041 31.6462 32.3041 31.6462L32.3035 31.6454Z" fill="#00ACC1"/>
<path id="Vector_5" fill-rule="evenodd" clip-rule="evenodd" d="M33.3847 10.3942C33.6701 8.92894 34.9849 7.98701 36.3156 8.28065C37.6615 8.58861 38.5237 10.0199 38.2391 11.4716C38.1756 11.8188 38.0495 12.1489 37.8683 12.4427C37.6871 12.7366 37.4542 12.9883 37.1832 13.1835C36.9122 13.3787 36.6083 13.5134 36.2892 13.5799C35.9701 13.6464 35.6421 13.6433 35.3241 13.5708C34.6804 13.4295 34.1146 13.0154 33.751 12.4196C33.3875 11.8237 33.256 11.0949 33.3854 10.3934L33.3847 10.3942Z" fill="#00ACC1"/>
<path id="Vector_6" d="M11.2701 31.6235H7.25731V10.6616H18.2828V14.3029H11.2701V19.709H17.7957V23.3359H11.2701V31.6235ZM21.4182 15.0588H25.5636V31.6235H21.4182V15.0588ZM51.1273 0H149.927C150.477 0 151.004 0.237982 151.393 0.661594C151.782 1.08521 152 1.65975 152 2.25882V36.8941C152 37.4932 151.782 38.0677 151.393 38.4913C151.004 38.915 150.477 39.1529 149.927 39.1529H51.1273V0Z" fill="#00ACC1"/>
<path id="Vector_7" d="M73.416 31.6234H69.3507V22.576H61.7327V31.6234H57.6543V10.6615H61.7327V18.8761H69.3507V10.6615H73.416V31.6234ZM84.0339 15.2921C85.3929 15.2921 86.564 15.5782 87.5465 16.1527C88.5289 16.7167 89.2876 17.5381 89.823 18.6186C90.3578 19.6991 90.6252 21.0182 90.6252 22.576V24.6978H81.139C81.1832 25.9312 81.5204 26.9009 82.1525 27.6087C82.7923 28.3067 83.6788 28.6553 84.8098 28.6553C85.7487 28.6553 86.6082 28.5499 87.3889 28.3398C88.1697 28.129 88.9718 27.8143 89.7968 27.3934V30.7778C89.0685 31.1694 88.3051 31.4555 87.5071 31.6377C86.7174 31.8192 85.757 31.9103 84.626 31.9103C83.1523 31.9103 81.8451 31.6136 80.7051 31.0218C79.5734 30.4285 78.6835 29.5249 78.034 28.3112C77.3936 27.0975 77.0737 25.5682 77.0737 23.7228C77.0737 21.8495 77.3632 20.2916 77.9421 19.0485C78.5294 17.7964 79.3454 16.8597 80.3893 16.2385C81.4333 15.6076 82.6479 15.2921 84.0339 15.2921ZM84.0601 18.4032C83.2794 18.4032 82.63 18.6758 82.1125 19.2209C81.604 19.7661 81.3103 20.6214 81.2316 21.7877H86.8625C86.8535 21.1372 86.7443 20.5589 86.5336 20.0522C86.3431 19.5599 86.0225 19.1406 85.6126 18.8475C85.2091 18.5516 84.6916 18.4032 84.0601 18.4032ZM99.9144 15.2635C101.888 15.2635 103.401 15.7318 104.453 16.6685C105.506 17.6051 106.032 19.0297 106.032 20.9414V31.6234H103.229L102.454 29.4436H102.348C101.927 30.0174 101.497 30.4857 101.059 30.8494C100.606 31.2202 100.092 31.4927 99.5455 31.652C98.9755 31.8244 98.2825 31.9103 97.4672 31.9103C96.5988 31.9103 95.818 31.7288 95.1251 31.3651C94.4411 31.0022 93.9015 30.448 93.5069 29.7019C93.1117 28.9467 92.9148 27.9912 92.9148 26.8347C92.9148 25.133 93.4627 23.8809 94.5592 23.0775C95.6557 22.2651 97.3 21.8163 99.493 21.7297L102.046 21.6439V20.9414C102.046 20.1004 101.844 19.4837 101.441 19.0914C101.037 18.6999 100.475 18.5041 99.7562 18.5041C99.046 18.5041 98.3481 18.6141 97.6641 18.8339C96.9801 19.0538 96.2961 19.3309 95.6114 19.6652L94.2828 16.7114C95.0636 16.2626 95.9362 15.9088 96.9014 15.6505C97.8879 15.3908 98.8995 15.2609 99.9144 15.2635ZM102.046 24.1964L100.493 24.2536C99.1952 24.2912 98.2915 24.545 97.783 25.0141C97.2828 25.4816 97.0327 26.0983 97.0327 26.8633C97.0327 27.5319 97.2123 28.01 97.5723 28.2969C97.9315 28.574 98.4013 28.7125 98.9796 28.7125C99.8398 28.7125 100.563 28.4354 101.151 27.8813C101.747 27.3271 102.046 26.538 102.046 25.5155V24.1964ZM114.189 31.6234H110.177V9.31374H114.189V31.6234ZM124.61 28.4256C125.048 28.4256 125.474 28.3782 125.886 28.2826C126.307 28.187 126.724 28.0672 127.136 27.9242V31.1792C126.706 31.3892 126.171 31.5616 125.531 31.6949C124.899 31.838 124.206 31.9103 123.452 31.9103C122.575 31.9103 121.785 31.7574 121.084 31.451C120.391 31.1355 119.842 30.5956 119.439 29.8314C119.044 29.0566 118.847 27.9814 118.847 26.605V18.8768H116.926V17.0269L119.136 15.5647L120.294 12.1809H122.86V15.5933H126.978V18.8761H122.86V26.605C122.86 27.2172 123.018 27.6757 123.333 27.9814C123.658 28.2781 124.083 28.4256 124.61 28.4256ZM134.135 9.31299V13.8585C134.135 14.6513 134.109 15.4065 134.056 16.1241C134.028 16.6311 133.993 17.1376 133.951 17.6435H134.161C134.477 17.0894 134.85 16.6399 135.28 16.2958C135.718 15.9518 136.208 15.6944 136.727 15.5353C137.28 15.3691 137.851 15.2872 138.424 15.2921C139.486 15.2921 140.411 15.4976 141.2 15.9088C141.99 16.3101 142.604 16.9456 143.042 17.816C143.481 18.6758 143.701 19.7947 143.701 21.1711V31.6234H139.687V22.2606C139.687 21.1131 139.495 20.2487 139.109 19.6652C138.723 19.0824 138.127 18.7903 137.32 18.7903C136.513 18.7903 135.876 18.9966 135.411 19.4077C134.947 19.809 134.618 20.4061 134.425 21.1997C134.232 21.9827 134.135 22.9442 134.135 24.0812V31.6234H130.122V9.31374L134.135 9.31299Z" fill="white"/>
<path id="Vector_8" d="M11.0165 59.8417V50.2417H12.2346V51.3742H12.3383C12.4108 51.2281 12.5151 51.0602 12.6512 50.8697C12.788 50.6784 12.9767 50.5113 13.2185 50.369C13.4603 50.2237 13.7802 50.1506 14.1781 50.1506C14.6949 50.1506 15.1565 50.2937 15.5627 50.5783C15.969 50.8629 16.2875 51.274 16.5183 51.8101C16.7518 52.3462 16.8685 52.9922 16.8685 53.7467C16.8685 54.5011 16.7532 55.1479 16.5224 55.6878C16.2916 56.2238 15.9745 56.6372 15.571 56.9286C15.1682 57.2162 14.7074 57.36 14.1906 57.36C13.8009 57.36 13.4831 57.2893 13.2351 57.1462C13.0138 57.0243 12.8179 56.8541 12.6595 56.6462C12.5401 56.4864 12.4329 56.3162 12.3389 56.1373H12.2629V59.8417H11.0165ZM12.2388 53.7331C12.2388 54.224 12.3037 54.654 12.4343 55.0237C12.5656 55.3934 12.7542 55.6832 13.0015 55.8918C13.2496 56.0981 13.5522 56.2005 13.9108 56.2005C14.2839 56.2005 14.5948 56.0936 14.8456 55.8782C15.0957 55.6599 15.285 55.3647 15.4121 54.992C15.5434 54.6193 15.609 54.1992 15.609 53.7331C15.609 53.2723 15.5448 52.8582 15.4169 52.4923C15.2919 52.1256 15.1026 51.8357 14.8497 51.6241C14.5996 51.4118 14.2866 51.3056 13.9115 51.3056C13.5494 51.3056 13.244 51.4073 12.9932 51.6098C12.7459 51.8131 12.558 52.0962 12.4301 52.4607C12.3023 52.8236 12.2388 53.2482 12.2388 53.7331ZM18.2656 57.2238V50.2417H19.4712V51.3508H19.5375C19.655 50.9751 19.8602 50.6799 20.1552 50.4646C20.4523 50.2462 20.7888 50.1371 21.1639 50.1371C21.341 50.1382 21.5178 50.149 21.6939 50.1694V51.469C21.606 51.4466 21.5169 51.43 21.4272 51.4193C21.3003 51.3983 21.1721 51.3877 21.0437 51.3877C20.7487 51.3877 20.4861 51.4555 20.2554 51.5918C20.0277 51.7228 19.8379 51.92 19.7068 52.1615C19.5757 52.403 19.5085 52.6793 19.5127 52.9598V57.2238H18.2656ZM25.3052 57.3646C24.6737 57.3646 24.1307 57.2177 23.6747 56.9241C23.2209 56.6267 22.8557 56.1927 22.6231 55.6742C22.3785 55.1343 22.2563 54.5026 22.2563 53.7783C22.2563 53.063 22.3785 52.4328 22.6231 51.8877C22.8705 51.3418 23.2152 50.9164 23.6574 50.6099C24.1024 50.3042 24.6226 50.1506 25.2175 50.1506C25.5788 50.1506 25.9291 50.2161 26.2684 50.3464C26.6076 50.4766 26.9123 50.6814 27.1817 50.96C27.4512 51.2386 27.6647 51.6008 27.8201 52.0465C27.9763 52.4893 28.0537 53.0269 28.0537 53.6601V54.142H22.9617V53.124H26.8315C26.8315 52.7663 26.7651 52.4494 26.6311 52.1738C26.5033 51.9016 26.3086 51.6735 26.0687 51.515C25.8296 51.3538 25.5484 51.274 25.2258 51.274C24.8755 51.274 24.5694 51.3674 24.3083 51.5556C24.0528 51.7364 23.8455 51.9872 23.7072 52.283C23.5677 52.5829 23.4964 52.915 23.4992 53.2512V54.0463C23.4992 54.5132 23.5745 54.91 23.7244 55.2375C23.8771 55.5643 24.0906 55.815 24.3621 55.9874C24.6351 56.1568 24.9536 56.2419 25.3177 56.2419C25.554 56.2419 25.7695 56.2058 25.9644 56.1327C26.1548 56.0622 26.3282 55.946 26.4718 55.7926C26.6155 55.6392 26.7256 55.4526 26.7941 55.2465L27.9742 55.4784C27.8829 55.851 27.7082 56.193 27.4657 56.4738C27.2239 56.7554 26.9199 56.9753 26.5523 57.1326C26.1882 57.2878 25.7723 57.3646 25.3052 57.3646ZM34.7348 50.2417L32.4105 57.2238H31.0771L28.7487 50.2417H30.0884L31.7107 55.6147H31.7777L33.3958 50.2417H34.7348ZM35.9065 57.2238V50.2417H37.1536V57.2238H35.9065ZM36.5367 49.1643C36.3197 49.1643 36.1332 49.086 35.977 48.9286C35.9042 48.8559 35.8462 48.7673 35.8068 48.6686C35.7674 48.5699 35.7475 48.4633 35.7483 48.3556C35.7483 48.1312 35.8243 47.9407 35.9777 47.7834C36.1332 47.6222 36.3197 47.5424 36.5367 47.5424C36.7536 47.5424 36.9381 47.6222 37.0915 47.7834C37.1658 47.8549 37.2251 47.943 37.2654 48.0418C37.3057 48.1405 37.326 48.2476 37.325 48.3556C37.325 48.577 37.2469 48.7675 37.0915 48.9278C36.9381 49.086 36.7529 49.1643 36.5367 49.1643ZM41.5305 57.3646C40.9295 57.3646 40.4057 57.214 39.958 56.915C39.5074 56.6118 39.1455 56.1748 38.9148 55.6554C38.6674 55.1163 38.5437 54.4861 38.5437 53.7647C38.5437 53.0404 38.6681 52.4072 38.9148 51.8643C39.1628 51.3222 39.5103 50.9006 39.958 50.6009C40.4057 50.3012 40.9295 50.1514 41.5305 50.1514C42.1309 50.1514 42.6547 50.3012 43.1031 50.6009C43.5541 50.905 43.9159 51.3434 44.1456 51.8643C44.393 52.4064 44.5167 53.0404 44.5167 53.7647C44.5167 54.4861 44.3923 55.1163 44.1456 55.6554C43.9148 56.1746 43.5529 56.6113 43.1024 56.9143C42.6547 57.2147 42.1309 57.3646 41.5305 57.3646ZM41.5347 56.2238C41.9237 56.2238 42.2463 56.1117 42.502 55.8873C42.7576 55.6629 42.9469 55.3647 43.0692 54.9913C43.1978 54.5962 43.2615 54.1794 43.2571 53.7602C43.2571 53.3145 43.1949 52.9056 43.0692 52.5329C42.9469 52.1565 42.7583 51.8553 42.5027 51.6286C42.2463 51.4013 41.9237 51.2876 41.5347 51.2876C41.1423 51.2876 40.8168 51.4005 40.5584 51.6286C40.3028 51.8553 40.1121 52.1572 39.9871 52.5322C39.8613 52.9267 39.7991 53.3419 39.8033 53.7595C39.8033 54.209 39.8648 54.6193 39.9871 54.992C40.1121 55.3647 40.3028 55.6629 40.5584 55.888C40.8168 56.1117 41.1423 56.2238 41.5347 56.2238ZM49.9672 54.3287V50.2417H51.2178V57.2238H49.9921V56.0145H49.9251C49.7743 56.392 49.5286 56.7152 49.2162 56.9467C48.8936 57.1921 48.4921 57.3149 48.0106 57.3149C47.5995 57.3149 47.2354 57.2162 46.9183 57.019C46.6039 56.8194 46.3565 56.5235 46.1755 56.1327C45.998 55.742 45.9088 55.2586 45.9088 54.6826V50.2417H47.1559V54.5192C47.1559 54.995 47.2768 55.3738 47.5187 55.6561C47.7605 55.937 48.0748 56.0778 48.4611 56.0778C48.6946 56.0778 48.9267 56.0145 49.1582 55.8873C49.3917 55.76 49.5845 55.568 49.7379 55.3105C49.8933 55.0523 49.97 54.7262 49.9672 54.3287ZM57.6951 51.9464L56.5647 52.1647C56.5146 52.0013 56.4384 51.8489 56.3395 51.7145C56.2304 51.5643 56.0902 51.4443 55.9305 51.3644C55.7578 51.274 55.5429 51.2288 55.2838 51.2288C54.9314 51.2288 54.6364 51.3147 54.3994 51.4871C54.1631 51.6573 54.045 51.8771 54.045 52.1467C54.045 52.3801 54.1244 52.5683 54.2827 52.7099C54.4416 52.8529 54.6972 52.9689 55.0503 53.06L56.068 53.3145C56.6573 53.4628 57.0974 53.6917 57.3862 54.0012C57.6757 54.3099 57.8201 54.7119 57.8201 55.2059C57.8248 55.6084 57.7075 56.0014 57.4864 56.324C57.2667 56.6478 56.9592 56.9022 56.5647 57.0875C56.1723 57.2719 55.7177 57.3646 55.2009 57.3646C54.483 57.3646 53.8978 57.1982 53.4446 56.8646C52.9913 56.528 52.7136 56.0514 52.6107 55.4325L53.8156 55.233C53.8909 55.5756 54.045 55.8346 54.2785 56.01C54.512 56.1832 54.8174 56.269 55.1919 56.269C55.6009 56.269 55.9277 56.1764 56.173 55.9919C56.4169 55.8037 56.5392 55.5756 56.5392 55.3053C56.5406 55.2013 56.5212 55.0982 56.4823 55.0033C56.4434 54.9084 56.3859 54.8238 56.3139 54.7556C56.1668 54.6073 55.9408 54.4951 55.6341 54.419L54.5494 54.16C53.9517 54.0117 53.5102 53.7753 53.2235 53.4508C52.9402 53.127 52.7979 52.7159 52.7979 52.219C52.7979 51.8071 52.9036 51.4464 53.1157 51.1377C53.3264 50.8283 53.6187 50.5881 53.9911 50.4149C54.3642 50.2387 54.7905 50.1514 55.2713 50.1514C55.9636 50.1514 56.5088 50.3148 56.9067 50.6415C57.304 50.9661 57.5679 51.4013 57.6951 51.9464ZM60.438 47.9144V57.2238H59.1909V47.9144H60.438ZM62.9045 59.8417C62.718 59.8417 62.5487 59.8252 62.3953 59.792C62.2783 59.7725 62.1636 59.7389 62.0533 59.6919L62.3539 58.5783C62.5819 58.6446 62.785 58.6739 62.9625 58.6649C63.1408 58.6558 63.2976 58.5828 63.4344 58.4465C63.5726 58.3102 63.6956 58.0874 63.8006 57.7787L63.9554 57.3149L61.6111 50.2417H62.946L64.5689 55.6599H64.6352L66.2582 50.2417H67.5965L64.9565 58.1551C64.8494 58.4892 64.6915 58.8012 64.4895 59.0782C64.3001 59.3327 64.0749 59.524 63.8137 59.6505C63.5526 59.7785 63.2493 59.8417 62.9045 59.8417ZM71.2804 47.9151H73.3034L75.2517 51.9238H75.3347L77.283 47.9144H79.306L76.19 53.9326V57.2238H74.3964V53.9334L71.2804 47.9151ZM81.8112 57.36C81.1632 57.36 80.6035 57.2094 80.1303 56.9105C79.6639 56.6114 79.2862 56.1726 79.0421 55.6463C78.7857 55.1042 78.6579 54.4755 78.6579 53.7602C78.6579 53.0389 78.7857 52.4087 79.0421 51.8688C79.2847 51.3416 79.6628 50.9027 80.1303 50.6054C80.6035 50.3027 81.1632 50.1514 81.8112 50.1514C82.4593 50.1514 83.0183 50.302 83.4881 50.6054C83.9574 50.9018 84.3372 51.3408 84.5811 51.8688C84.8367 52.4087 84.9645 53.0389 84.9645 53.7602C84.9645 54.4755 84.8367 55.1042 84.5811 55.6463C84.3357 56.1731 83.9562 56.6118 83.4881 56.9098C83.0183 57.2102 82.4593 57.36 81.8112 57.36ZM81.8195 55.8602C82.1145 55.8602 82.3605 55.7698 82.5581 55.5876C82.7557 55.4024 82.9043 55.1509 83.0044 54.8332C83.1074 54.5147 83.1585 54.1525 83.1585 53.7467C83.1585 53.3401 83.1074 52.9787 83.0044 52.6602C82.9043 52.3417 82.7557 52.0902 82.5581 51.9057C82.3605 51.7205 82.1145 51.6286 81.8195 51.6286C81.5224 51.6286 81.2716 51.7205 81.0692 51.9057C80.8688 52.0902 80.7175 52.3424 80.6146 52.6602C80.5097 53.0108 80.4588 53.3779 80.464 53.7467C80.464 54.1525 80.5144 54.5147 80.6146 54.8332C80.7175 55.1509 80.8688 55.4024 81.0692 55.5876C81.2716 55.7691 81.5224 55.8602 81.8195 55.8602ZM90.2286 54.2511V50.2417H92.0049V57.2238H90.2991V55.9558H90.2327C90.0883 56.3646 89.8472 56.6937 89.5107 56.9422C89.177 57.1906 88.7701 57.3149 88.2892 57.3149C87.8608 57.3149 87.4836 57.2087 87.1589 56.9964C86.8302 56.7808 86.5653 56.4669 86.3954 56.0921C86.2144 55.7006 86.1225 55.233 86.1198 54.6871V50.2417H87.8968V54.3422C87.8995 54.7541 88.0011 55.0801 88.2015 55.3188C88.4018 55.559 88.6699 55.678 89.0064 55.678C89.2205 55.678 89.4209 55.6253 89.6068 55.5198C89.7933 55.4099 89.9432 55.2495 90.0572 55.038C90.174 54.8256 90.2313 54.5636 90.2286 54.2511ZM93.4268 57.2238V50.2417H95.1492V51.46H95.2156C95.3323 51.027 95.5285 50.6995 95.8042 50.4782C96.0781 50.2543 96.4125 50.1359 96.7549 50.1416C96.9429 50.1431 97.1302 50.1661 97.3139 50.2101V51.9283C97.2003 51.8945 97.0846 51.8701 96.9677 51.8553C96.8335 51.8351 96.6983 51.8246 96.5628 51.8237C96.3017 51.8237 96.0681 51.8862 95.8623 52.0104C95.6616 52.1291 95.4945 52.305 95.3786 52.5194C95.2619 52.7377 95.2031 52.9892 95.2031 53.2738V57.2238H93.4268ZM98.2659 57.2238V47.9144H101.636C102.284 47.9144 102.836 48.0499 103.292 48.3195C103.733 48.57 104.096 48.9576 104.335 49.4331C104.577 49.9052 104.698 50.451 104.698 51.0692C104.698 51.6874 104.575 52.2325 104.331 52.7054C104.084 53.1799 103.714 53.5642 103.267 53.8099C102.805 54.0735 102.246 54.206 101.59 54.206H99.4419V52.6286H101.298C101.646 52.6286 101.932 52.563 102.157 52.4328C102.385 52.2995 102.555 52.1166 102.666 51.8831C102.78 51.6467 102.837 51.3757 102.837 51.0692C102.837 50.7605 102.78 50.4902 102.666 50.2598C102.554 50.0252 102.375 49.8358 102.157 49.7192C101.929 49.5889 101.64 49.5234 101.29 49.5234H100.072V57.2238H98.2659ZM107.614 53.188V57.2238H105.837V47.9144H107.564V51.4735H107.639C107.772 51.0776 108.018 50.7384 108.34 50.5053C108.662 50.2688 109.067 50.1514 109.553 50.1514C109.998 50.1514 110.387 50.2568 110.717 50.4691C111.051 50.6784 111.31 50.9796 111.493 51.3742C111.679 51.7649 111.771 52.2325 111.768 52.7784V57.2238H109.991V53.124C109.994 52.6933 109.894 52.3582 109.691 52.1188C109.491 51.8801 109.21 51.7604 108.849 51.7604C108.607 51.7604 108.393 51.8161 108.206 51.9283C108.021 52.0427 107.87 52.2132 107.773 52.4192C107.67 52.6316 107.617 52.8883 107.614 53.188ZM114.035 59.8417C113.809 59.8417 113.598 59.8222 113.4 59.783C113.235 59.7554 113.073 59.7082 112.917 59.6422L113.317 58.1966C113.525 58.2666 113.713 58.3042 113.88 58.3095C114.05 58.3163 114.196 58.2741 114.318 58.183C114.443 58.0926 114.544 57.9375 114.623 57.7192L114.727 57.424L112.428 50.2417H114.297L115.624 55.3693H115.69L117.029 50.2417H118.91L116.42 57.9782C116.301 58.3547 116.138 58.6814 115.932 58.96C115.728 59.2427 115.463 59.4659 115.161 59.6098C114.849 59.7649 114.473 59.8417 114.035 59.8417ZM125.15 52.2325L123.523 52.3417C123.496 52.1912 123.434 52.0507 123.344 51.9328C123.246 51.8042 123.122 51.7029 122.981 51.6377C122.833 51.5616 122.657 51.524 122.451 51.524C122.176 51.524 121.944 51.5872 121.755 51.7145C121.565 51.8387 121.471 52.0059 121.471 52.2144C121.471 52.3816 121.532 52.5224 121.655 52.6376C121.777 52.7528 121.987 52.8446 122.285 52.9147L123.444 53.1692C124.067 53.3085 124.531 53.5328 124.837 53.8423C125.143 54.151 125.296 54.5576 125.296 55.0598C125.296 55.5176 125.172 55.9189 124.925 56.2645C124.68 56.6101 124.344 56.8797 123.915 57.0739C123.49 57.2644 122.999 57.36 122.443 57.36C121.594 57.36 120.919 57.168 120.416 56.7825C120.175 56.6019 119.972 56.3676 119.82 56.095C119.668 55.8224 119.571 55.5178 119.536 55.2014L121.284 55.1012C121.336 55.3828 121.464 55.5982 121.667 55.7465C121.87 55.8918 122.13 55.9648 122.447 55.9648C122.759 55.9648 123.009 55.8993 123.198 55.7691C123.389 55.6358 123.487 55.4649 123.49 55.2556C123.489 55.1711 123.471 55.088 123.435 55.013C123.4 54.938 123.348 54.8733 123.285 54.8241C123.152 54.7089 122.946 54.6208 122.668 54.5606L121.559 54.3197C120.933 54.1826 120.467 53.9462 120.162 53.6104C119.858 53.2738 119.707 52.8446 119.707 52.3236C119.707 51.8749 119.818 51.4886 120.041 51.1641C120.266 50.8403 120.582 50.5903 120.987 50.4149C121.396 50.2387 121.874 50.1514 122.422 50.1514C123.231 50.1514 123.868 50.3374 124.333 50.7101C124.8 51.0828 125.072 51.591 125.15 52.2325ZM126.415 57.2238V50.2417H128.191V57.2238H126.415ZM127.308 49.342C127.043 49.342 126.816 49.2463 126.628 49.0558C126.539 48.968 126.468 48.8605 126.419 48.7406C126.371 48.6207 126.347 48.491 126.348 48.3601C126.348 48.0936 126.441 47.8647 126.628 47.6734C126.816 47.4799 127.043 47.3828 127.308 47.3828C127.572 47.3828 127.797 47.4799 127.983 47.6734C128.172 47.8647 128.267 48.0936 128.267 48.3601C128.267 48.6297 128.172 48.8616 127.983 49.0558C127.797 49.2463 127.572 49.342 127.308 49.342ZM132.509 57.3608C131.861 57.3608 131.301 57.2102 130.828 56.9098C130.362 56.6109 129.985 56.1724 129.74 55.6463C129.484 55.1042 129.356 54.4755 129.356 53.7602C129.356 53.0389 129.484 52.4087 129.74 51.8688C129.983 51.3416 130.361 50.9027 130.828 50.6054C131.301 50.3027 131.861 50.1514 132.509 50.1514C133.158 50.1514 133.716 50.302 134.186 50.6054C134.656 50.9018 135.035 51.3408 135.279 51.8688C135.535 52.4087 135.663 53.0389 135.663 53.7602C135.663 54.4755 135.535 55.1042 135.279 55.6463C135.034 56.1731 134.654 56.6118 134.186 56.9098C133.716 57.2102 133.158 57.3608 132.509 57.3608ZM132.518 55.8602C132.813 55.8602 133.059 55.7698 133.256 55.5876C133.453 55.4024 133.602 55.1509 133.703 54.8332C133.806 54.5147 133.857 54.1525 133.857 53.7467C133.857 53.3401 133.806 52.9787 133.703 52.6602C133.602 52.3417 133.453 52.0902 133.256 51.9057C133.059 51.7205 132.813 51.6286 132.518 51.6286C132.221 51.6286 131.97 51.7205 131.767 51.9057C131.567 52.0902 131.415 52.3424 131.313 52.6602C131.208 53.0108 131.157 53.3779 131.162 53.7467C131.162 54.1525 131.213 54.5147 131.313 54.8332C131.415 55.1509 131.567 55.4024 131.767 55.5876C131.97 55.7691 132.221 55.8602 132.518 55.8602Z" fill="#515151"/>
</g>
<defs>
<clipPath id="clip0_1_7566">
<rect width="152" height="64" fill="white"/>
</clipPath>
</defs>
</svg>
